<svg xmlns="http://www.w3.org/2000/svg" width="256" height="256" viewBox="0 0 256 256">
  <rect width="256" height="256" rx="36" fill="#0f172a"/>
  <rect x="46" y="34" width="128" height="180" rx="12" fill="#e5e7eb"/>
  <rect x="66" y="72" width="88" height="10" rx="5" fill="#38bdf8"/>
  <rect x="66" y="96" width="70" height="8" rx="4" fill="#94a3b8"/>
  <rect x="66" y="116" width="82" height="8" rx="4" fill="#94a3b8"/>
  <rect x="66" y="136" width="60" height="8" rx="4" fill="#94a3b8"/>
  <circle cx="176" cy="176" r="36" fill="#38bdf8"/>
  <path d="M174 158c-9 0-17 8-17 17s8 17 17 17c5 0 9-2 12-5l17 17 7-7-17-17c3-3 5-7 5-12 0-9-8-17-17-17zm0 8c5 0 9 4 9 9s-4 9-9 9-9-4-9-9 4-9 9-9z" fill="#0f172a"/>
</svg>
